<svg width="300" height="300" viewBox="0 0 300 300" fill="none" xmlns="http://www.w3.org/2000/svg">
<path d="M55.6334 78.8934C89.1287 126.874 60.0407 149.454 46.8189 145.69C37.8343 143.133 15.4135 129.519 0 136.62C3.11238 101.357 18.4313 69.5981 41.7053 45.5949C42.3313 57.7116 49.0354 69.4419 55.6334 78.8934Z" fill="#FFBB00"/>
<path d="M172.866 106.177C174.629 75.1302 136.487 96.0561 125.268 92.0646C84.3352 77.5017 105.33 21.8891 126.027 1.81242C133.648 0.619334 141.46 0 149.416 0C202.68 0 249.46 27.7563 276.075 69.5913C268.981 73.3961 257.3 73.5963 240.738 69.4854C210.416 61.959 218.702 88.3014 218.702 103.354C217.997 128.944 207.243 134.192 197.547 135.341C172.161 138.352 170.516 117.153 172.866 106.177Z" fill="#FFBB00"/>
<path d="M172.866 161.684C162.289 133.026 98.8245 154.158 131.438 212.487C147.794 241.74 116.122 275.081 86.8742 286.333C105.911 295.076 127.094 299.951 149.416 299.951C231.264 299.951 297.801 234.41 299.39 152.957C297.712 150.851 296.39 148.341 295.388 145.69C279.169 102.79 261.893 99.591 253.96 99.591C232.805 98.8384 239.64 131.578 239.857 147.572C240.738 212.487 184.325 192.73 172.866 161.684Z" fill="#FFBB00"/>
<path d="M4.44617 188.642C10.6103 189.326 17.1149 188.452 22.1382 187.086C91.6527 181.892 84.4168 235.796 54.0411 265.737C30.2493 246.12 12.6087 219.313 4.44617 188.642Z" fill="#FFBB00"/>
</svg>
